<svg xmlns="http://www.w3.org/2000/svg" width="24" height="24" viewBox="0 0 24 24" fill="none" stroke="currentColor" stroke-width="2" stroke-linecap="round" stroke-linejoin="round">
  <circle cx="13.5" cy="6.5" r=".5" fill="currentColor"/>
  <circle cx="17.5" cy="10.5" r=".5" fill="currentColor"/>
  <circle cx="8.5" cy="7.5" r=".5" fill="currentColor"/>
  <circle cx="6.5" cy="12.5" r=".5" fill="currentColor"/>
  <path d="M12 2C6.5 2 2 6.5 2 12s4.5 10 10 10c.926 0 1.648-.926 1.648-1.985 0-1.056-.722-1.985-1.648-1.985-1.37 0-2.5-1.113-2.5-2.5 0-1.388 1.13-2.5 2.5-2.5 1.37 0 2.5-1.113 2.5-2.5 0-1.388-1.13-2.5-2.5-2.5z"/>
</svg>

